<svg xmlns="http://www.w3.org/2000/svg" width="24" height="24" viewBox="0 0 24 24" fill="none"><path d="M3.4082 2.97195C3.0216 2.97195 2.7082 3.28535 2.7082 3.67195C2.7082 4.05855 3.0216 4.37195 3.4082 4.37195V2.97195ZM5.17586 3.67195V4.37198L5.18193 4.37192L5.17586 3.67195ZM6.18789 4.04424L5.72919 4.57301L6.18789 4.04424ZM6.69914 4.99195L7.38087 4.83307C7.37814 4.82137 7.37512 4.80975 7.37179 4.79821L6.69914 4.99195ZM9.07095 15.1688L8.38922 15.3277C8.46307 15.6446 8.74556 15.8688 9.07095 15.8688V15.1688ZM18.1906 15.1688V15.8688C18.1989 15.8688 18.2072 15.8687 18.2154 15.8684L18.1906 15.1688ZM19.1927 14.3588L19.8718 14.5288C19.874 14.5201 19.876 14.5113 19.8778 14.5025L19.1927 14.3588ZM20.5295 7.9864L19.8466 7.83255L19.8445 7.84269L20.5295 7.9864ZM19.5274 6.70641L19.5436 6.0066C19.5382 6.00647 19.5328 6.00641 19.5274 6.00641V6.70641ZM7.20995 6.00641C6.82335 6.00641 6.50995 6.31981 6.50995 6.70641C6.50995 7.09301 6.82335 7.40641 7.20995 7.40641V6.00641ZM3.4082 4.37195H5.17586V2.97195H3.4082V4.37195ZM5.18193 4.37192C5.39613 4.37007 5.54964 4.41725 5.72919 4.57301L6.64659 3.51547C6.18993 3.11933 5.69871 2.96739 5.16979 2.97198L5.18193 4.37192ZM5.72919 4.57301C5.72916 4.57298 5.72976 4.5735 5.73096 4.57466C5.73216 4.57582 5.73387 4.57754 5.73608 4.57988C5.74055 4.58464 5.74652 4.59142 5.75382 4.60057C5.76872 4.61926 5.78641 4.64432 5.80613 4.67627C5.84626 4.74127 5.88535 4.81933 5.92077 4.90073C5.95564 4.98087 5.98316 5.05547 6.00186 5.10993C6.0111 5.13683 6.01789 5.15797 6.02209 5.1714C6.02418 5.17809 6.02561 5.1828 6.02635 5.18528C6.02672 5.18652 6.02692 5.18719 6.02694 5.18727C6.02695 5.18731 6.02692 5.1872 6.02685 5.18694C6.02681 5.18681 6.02676 5.18664 6.0267 5.18643C6.02667 5.18633 6.02663 5.18621 6.0266 5.18609C6.02658 5.18603 6.02655 5.18593 6.02654 5.1859C6.02651 5.18579 6.02648 5.18569 6.69914 4.99195C7.37179 4.79821 7.37176 4.7981 7.37173 4.79799C7.37172 4.79795 7.37168 4.79783 7.37166 4.79775C7.37161 4.79758 7.37156 4.79741 7.37151 4.79722C7.3714 4.79685 7.37128 4.79644 7.37115 4.79598C7.37088 4.79507 7.37057 4.79399 7.3702 4.79275C7.36948 4.79027 7.36855 4.78714 7.36742 4.78339C7.36518 4.77589 7.36213 4.76589 7.35831 4.75366C7.35068 4.72925 7.33987 4.69573 7.32599 4.65531C7.29847 4.57514 7.25774 4.46448 7.2045 4.34214C7.11077 4.12672 6.93203 3.76309 6.64659 3.51547L5.72919 4.57301ZM6.01741 5.15083L8.38922 15.3277L9.75268 15.0099L7.38087 4.83307L6.01741 5.15083ZM9.07095 15.8688H18.1906V14.4688H9.07095V15.8688ZM18.2154 15.8684C18.5993 15.8547 18.9685 15.7169 19.2673 15.4754L18.3873 14.3865C18.3246 14.4373 18.2468 14.4664 18.1657 14.4693L18.2154 15.8684ZM19.2673 15.4754C19.5662 15.2338 19.7784 14.9017 19.8718 14.5288L18.5137 14.1888C18.4943 14.2664 18.45 14.3359 18.3873 14.3865L19.2673 15.4754ZM19.8778 14.5025L21.2146 8.13012L19.8445 7.84269L18.5076 14.2151L19.8778 14.5025ZM21.2124 8.14024C21.2694 7.88736 21.2694 7.625 21.2125 7.37212L19.8467 7.6797C19.858 7.73004 19.858 7.78224 19.8467 7.83257L21.2124 8.14024ZM21.2125 7.37212C21.1555 7.11924 21.043 6.88223 20.8833 6.67817L19.7809 7.54122C19.8129 7.58206 19.8353 7.62937 19.8467 7.6797L21.2125 7.37212ZM20.8833 6.67817C20.7235 6.47412 20.5205 6.3081 20.2888 6.192L19.6615 7.44362C19.7082 7.467 19.749 7.50037 19.7809 7.54122L20.8833 6.67817ZM20.2888 6.192C20.0571 6.07591 19.8026 6.01261 19.5436 6.0066L19.5111 7.40622C19.5635 7.40743 19.6149 7.42023 19.6615 7.44362L20.2888 6.192ZM19.5274 6.00641H7.20995V7.40641H19.5274V6.00641Z" fill="#30363C"></path><path d="M10.7781 20.4968C11.601 20.4968 12.2681 19.8329 12.2681 19.014C12.2681 18.1951 11.601 17.5312 10.7781 17.5312C9.95518 17.5312 9.28809 18.1951 9.28809 19.014C9.28809 19.8329 9.95518 20.4968 10.7781 20.4968Z" stroke="#30363C" stroke-width="1.4" stroke-linecap="round" stroke-linejoin="round"></path><path d="M17.3982 20.4968C18.2211 20.4968 18.8882 19.8329 18.8882 19.014C18.8882 18.1951 18.2211 17.5312 17.3982 17.5312C16.5753 17.5312 15.9082 18.1951 15.9082 19.014C15.9082 19.8329 16.5753 20.4968 17.3982 20.4968Z" stroke="#30363C" stroke-width="1.4" stroke-linecap="round" stroke-linejoin="round"></path></svg>